<svg width="24" height="20" viewBox="0 0 24 20" fill="none" xmlns="http://www.w3.org/2000/svg">
<path d="M0.831403 17.1048C3.32182 17.3287 5.56588 16.7016 7.60838 15.1698C5.47182 14.9816 4.04297 13.9156 3.24567 11.9179C3.94442 12.003 4.59838 12.0254 5.29265 11.8373C2.99036 11.1206 1.76307 9.6156 1.59734 7.18789C2.28713 7.51039 2.93661 7.7433 3.70255 7.75226C2.3364 6.72653 1.63765 5.39622 1.66453 3.72101C1.67797 2.9506 1.88401 2.22497 2.29161 1.53966C4.82234 4.50039 7.99807 6.13976 11.9084 6.41299C11.886 6.24278 11.8726 6.10841 11.8546 5.96955C11.5321 3.4881 13.1446 1.2306 15.6082 0.760283C17.1535 0.464658 18.5196 0.872263 19.6753 1.9383C19.8544 2.09955 20.0067 2.13539 20.2307 2.07716C21.131 1.84872 21.9865 1.51726 22.8152 1.06935C22.4971 2.11747 21.8432 2.9058 20.9563 3.56872C21.1579 3.53289 21.3639 3.50601 21.5655 3.4657C21.776 3.42091 21.9865 3.37164 22.197 3.31341C22.3986 3.25966 22.5957 3.19695 22.7928 3.12976C22.9943 3.06257 23.1959 2.98643 23.4333 2.94612C23.3168 3.10737 23.2048 3.27757 23.0794 3.43435C22.5598 4.09278 21.9596 4.6706 21.3012 5.1857C21.234 5.23945 21.1758 5.35591 21.1803 5.43653C21.2161 7.02664 20.9921 8.57643 20.477 10.0814C19.4647 13.0466 17.6999 15.4475 15.0528 17.163C13.7448 18.0096 12.316 18.565 10.7886 18.8875C9.27463 19.2055 7.75172 19.2637 6.22432 19.0846C4.69245 18.9054 3.23672 18.453 1.86609 17.7453C1.50328 17.5616 1.1539 17.3556 0.800049 17.1585C0.813486 17.1406 0.822445 17.1227 0.831403 17.1048Z" fill="#D8BFA9"/>
</svg>
